<svg xmlns="http://www.w3.org/2000/svg" viewBox="0 0 573.56 292.46">
  <defs>
    <style>.cls-1 {
      fill: #fff;
    }</style>
  </defs>
  <g id="Слой_2" data-name="Слой 2">
    <g id="Слой_1-2" data-name="Слой 1">
      <polygon class="cls-1"
               points="146.11 146.11 177.22 188.17 221.03 188.17 190.91 146.11 221.03 104.04 177.22 104.04 146.11 146.11"/>
      <path class="cls-1"
            d="M286.25,104H242.19l-30.87,42.07,30.87,42.06c-23.15,53-85.13,77.17-138.15,54S26.88,157.06,50,104s85.13-77.16,138.15-54a103.85,103.85,0,0,1,42.07,33.36h48c-34.6-72.93-122-103.8-194.9-69.2s-103.8,122-69.2,194.9,122,103.8,194.9,69.2a146.19,146.19,0,0,0,77.17-90.11l-30.37-42.06Z"/>
      <path class="cls-1"
            d="M460,186.32l-.23-36.88L442.2,179h-12L412.6,150.71v35.61H387.74V105.38h22.43l26.37,43.13,25.67-43.13h22.43l.23,80.94Z"/>
      <path class="cls-1" d="M522.57,126.54H498.86V105.38h74.7v21.16H549.85v59.78H522.57Z"/>
      <path class="cls-1"
            d="M343.11,146.21v17.91a25.73,25.73,0,0,1-9.94,2q-8.79,0-14.05-5.55t-5.26-14.69q0-9.36,5.31-14.8t14.34-5.43q10.53,0,18.16,8.9l17.46-15.38a40.16,40.16,0,0,0-15.67-11.62,54.29,54.29,0,0,0-21.33-4,50.91,50.91,0,0,0-23.65,5.38,40,40,0,0,0-16.31,15,44.09,44.09,0,0,0,0,43.82,40.28,40.28,0,0,0,16.13,15,49.52,49.52,0,0,0,23.25,5.37,68.41,68.41,0,0,0,18.61-2.66,54.86,54.86,0,0,0,16.65-7.63V146.21Z"/>
      <path class="cls-1"
            d="M373.85,229.19,387,199.05h4.87l13.17,30.14H399.5l-3-7.23H382.31l-3.07,7.23Zm10.39-11.89h10.3l-5.17-12Z"/>
      <path class="cls-1"
            d="M420,229.7a11.19,11.19,0,0,1-8.34-3.42,12.07,12.07,0,0,1,0-16.67,11.18,11.18,0,0,1,8.36-3.47,11.67,11.67,0,0,1,9,3.89l-3.2,3.47a8,8,0,0,0-5.86-2.83,5.94,5.94,0,0,0-4.64,2.12,7.53,7.53,0,0,0-1.86,5.15,7.43,7.43,0,0,0,1.9,5.17,6.27,6.27,0,0,0,4.86,2.1,8.09,8.09,0,0,0,5.85-2.82l3.12,3.08a13.72,13.72,0,0,1-4,3.14A11.5,11.5,0,0,1,420,229.7Z"/>
      <path class="cls-1"
            d="M444.43,229.7a11.15,11.15,0,0,1-8.33-3.42,12,12,0,0,1,0-16.67,11.14,11.14,0,0,1,8.35-3.47,11.71,11.71,0,0,1,9,3.89l-3.21,3.47a8,8,0,0,0-5.86-2.83,5.94,5.94,0,0,0-4.64,2.12,7.53,7.53,0,0,0-1.86,5.15,7.39,7.39,0,0,0,1.91,5.17,6.24,6.24,0,0,0,4.85,2.1,8.13,8.13,0,0,0,5.86-2.82l3.12,3.08a13.89,13.89,0,0,1-4,3.14A11.5,11.5,0,0,1,444.43,229.7Z"/>
      <path class="cls-1"
            d="M469.14,229.7a11.6,11.6,0,0,1-8.55-3.42,11.85,11.85,0,0,1,0-16.7,12.46,12.46,0,0,1,17.17,0,11.83,11.83,0,0,1,0,16.7A11.78,11.78,0,0,1,469.14,229.7Zm.09-4.49a6.35,6.35,0,0,0,5-2.1,7.46,7.46,0,0,0,1.88-5.17,7.3,7.3,0,0,0-2-5.15,6.48,6.48,0,0,0-5-2.12,6.27,6.27,0,0,0-4.91,2.1,7.44,7.44,0,0,0-1.89,5.17,7.3,7.3,0,0,0,2,5.13A6.39,6.39,0,0,0,469.23,225.21Z"/>
      <path class="cls-1"
            d="M494.28,229.66a7.56,7.56,0,0,1-5.9-2.36,9,9,0,0,1-2.14-6.32V206.61h5.18v12.83a6,6,0,0,0,1.26,4.08,4.48,4.48,0,0,0,3.57,1.43,4.83,4.83,0,0,0,3.67-1.49,5.76,5.76,0,0,0,1.41-4.11V206.61h5.18v22.58h-5.18v-3.51A8.17,8.17,0,0,1,494.28,229.66Z"/>
      <path class="cls-1"
            d="M513,229.19V206.61h5.17v3.51a8.19,8.19,0,0,1,7.05-4,7.59,7.59,0,0,1,5.9,2.35,9,9,0,0,1,2.14,6.33v14.37H528.1V216.36a6,6,0,0,0-1.26-4.08,4.52,4.52,0,0,0-3.57-1.44,4.82,4.82,0,0,0-3.68,1.5,5.76,5.76,0,0,0-1.41,4.11v12.74Z"/>
      <path class="cls-1"
            d="M547.08,229.57q-6.5,0-6.5-6.63V211.06h-2.86v-4.45h2.86v-6.2h5.17v6.2h6.07v4.45h-6.07v11.07c0,1.88.93,2.82,2.78,2.82a7,7,0,0,0,3.21-.77v4.24A9.33,9.33,0,0,1,547.08,229.57Z"/>
    </g>
  </g>
</svg>
